/* XPM */
static char *b1a31e545c024bb9bf1623b104bcb603OCzfDhqH6iofgYkE[] = {
/* columns rows colors chars-per-pixel */
"32 32 234 2 ",
"   c #1D0B03",
".  c #221405",
"X  c #281709",
"o  c #2B170A",
"O  c #2C2106",
"+  c #2C240D",
"@  c #27200D",
"#  c #3D220F",
"$  c #2C2514",
"%  c #2D251B",
"&  c #392C16",
"*  c #432B13",
"=  c #473117",
"-  c #563517",
";  c #4D3A2D",
":  c #5D401E",
">  c #604017",
",  c #524434",
"<  c #754A23",
"1  c #6C5325",
"2  c #785631",
"3  c #6E4B31",
"4  c #7B6333",
"5  c #595146",
"6  c #534940",
"7  c #684847",
"8  c #765745",
"9  c #6D4D56",
"0  c #685657",
"q  c #795A59",
"w  c #635B49",
"e  c #7C6257",
"r  c #7B7355",
"t  c #6F6A55",
"y  c #785D66",
"u  c #776F67",
"i  c #885928",
"p  c #95572C",
"a  c #855A39",
"s  c #A24C39",
"d  c #A25B34",
"f  c #826328",
"g  c #97652C",
"h  c #8A6235",
"j  c #976A37",
"k  c #9C723C",
"l  c #8B732B",
"z  c #A8682F",
"x  c #A36E39",
"c  c #AA6435",
"v  c #A77638",
"b  c #B67C36",
"n  c #D47E3A",
"m  c #C07D36",
"M  c #825D48",
"N  c #825C51",
"B  c #886B49",
"V  c #966C45",
"C  c #9A774A",
"Z  c #896656",
"A  c #946C5A",
"S  c #976B59",
"D  c #8C765F",
"F  c #987758",
"G  c #8F7246",
"H  c #AB7948",
"J  c #B87E4E",
"K  c #A67B58",
"L  c #9D6E61",
"P  c #85776C",
"I  c #9C7160",
"U  c #866775",
"Y  c #867977",
"T  c #957279",
"R  c #A27464",
"E  c #A87562",
"W  c #A27570",
"Q  c #C27D42",
"!  c #B78839",
"~  c #AB8032",
"^  c #D5833A",
"/  c #D9843B",
"(  c #DC8C3C",
")  c #D7883B",
"_  c #C9963B",
"`  c #DD923C",
"'  c #D9973A",
"]  c #C38937",
"[  c #E2943C",
"{  c #E49B3D",
"}  c #E99F3D",
"|  c #E08F3D",
" . c #D0AA3C",
".. c #DEB13C",
"X. c #E6A23D",
"o. c #EBA33E",
"O. c #868256",
"+. c #9C8357",
"@. c #9F9E5E",
"#. c #B58C46",
"$. c #BB9242",
"%. c #AC8556",
"&. c #B28C55",
"*. c #A9975D",
"=. c #B89755",
"-. c #A6814A",
";. c #8D8E79",
":. c #9C967C",
">. c #99856C",
",. c #A68C66",
"<. c #A59666",
"1. c #B59A67",
"2. c #BD8C74",
"3. c #B18175",
"4. c #BC9E7A",
"5. c #A78A6F",
"6. c #A6A36C",
"7. c #BCAC7A",
"8. c #BAB87B",
"9. c #B1A369",
"0. c #D58C48",
"q. c #C79A44",
"w. c #D79645",
"e. c #C98B51",
"r. c #D58E52",
"t. c #C89A53",
"y. c #CE8C4A",
"u. c #E58647",
"i. c #E7994B",
"p. c #E59451",
"a. c #E99954",
"s. c #E98F51",
"d. c #D7A64A",
"f. c #DDAC5D",
"g. c #D7A956",
"h. c #D5AC55",
"j. c #ECA541",
"k. c #E8A848",
"l. c #E6B544",
"z. c #F8BC48",
"x. c #EEA153",
"c. c #E7AB57",
"v. c #E4B255",
"b. c #E9B658",
"n. c #F5BC5B",
"m. c #F4AA4B",
"M. c #C69179",
"N. c #CA926C",
"B. c #D5AA67",
"V. c #D0B26E",
"C. c #EBBD64",
"Z. c #ECB566",
"A. c #EDC546",
"S. c #FCC34A",
"D. c #F8C447",
"F. c #EDC654",
"G. c #F3C35D",
"H. c #FAC55C",
"J. c #FCCB5C",
"K. c #F9C755",
"L. c #FBD05F",
"P. c #DCD676",
"I. c #F5C462",
"U. c #FCCD63",
"Y. c #F8C968",
"T. c #FCD16A",
"R. c #FCD163",
"E. c #FCD47A",
"W. c #F0C170",
"Q. c #A37B88",
"!. c #8D8483",
"~. c #97888A",
"^. c #999487",
"/. c #9D9193",
"(. c #A89E88",
"). c #A29894",
"_. c #AF8D8B",
"`. c #BBB686",
"'. c #ADA596",
"]. c #B1AA8E",
"[. c #ADA4A3",
"{. c #B3AAA7",
"}. c #BDB4B3",
"|. c #B8B3AD",
" X c #D4B688",
".X c #CEBE8A",
"XX c #C2B9B8",
"oX c #D1BDA2",
"OX c #CAC493",
"+X c #D8D796",
"@X c #CCC98A",
"#X c #E6DC8E",
"$X c #F6D88A",
"%X c #F1CD91",
"&X c #F4D19A",
"*X c #EDC88D",
"=X c #DDE38B",
"-X c #ECE688",
";X c #ECE595",
":X c #E5E59B",
">X c #EBE69A",
",X c #E8E898",
"<X c #F3EA9E",
"1X c #F1E994",
"2X c #F1E38A",
"3X c #CCDFA8",
"4X c #C9C8BC",
"5X c #D6D1AB",
"6X c #E5DEA5",
"7X c #F4D2A4",
"8X c #CFE1A9",
"9X c #D6E2A5",
"0X c #DCE4AD",
"qX c #D9E3A5",
"wX c #D7E4B7",
"eX c #E2E4A3",
"rX c #EEEAA4",
"tX c #F1EBA8",
"yX c #C9BFC0",
"uX c #CCC7C6",
"iX c #D3CBC9",
"pX c #D7D2CF",
"aX c #DAD4D4",
"sX c #DBD9DA",
"dX c #D4CED0",
"fX c #E3DEDC",
"gX c #E1DAD4",
"hX c #E6E3E3",
"jX c #EDE9E7",
"kX c #EBE6E7",
"lX c #F2EEEE",
"zX c #FAF7F4",
"xX c #FFFFFF",
"cX c #F5F3F3",
/* pixels */
"A I A 8 Z L R E Z hXxXxXxXxXxXxXxXxXxXxXxXxXxXxXxXxXxXxXxXxX).W ",
"Z A A R R L L N iXxXxXxXxXxXxXxXxXxXxXxXxXxXxXxXxXxXxXxXxXxXfX9 ",
"S R R L L S S e xXxX{.XXsXhXpXXXxXxXaX}.xXxXyXaXlXlXaXsXxXxXcX7 ",
"A R R S S Z A Z xXxXaX4X0 ~.}.[.xXxX).~.hXxXY pX~.U /.uXxXxXlX7 ",
"F Z 8 3 8 7 , ; jXxXzXjXdXiXhXiXxXxXiX{.xXxXaXhXaXjX[.dXhXxXuXq ",
"F K K S M M F K Y zXxXxXxXxXxXxXxXxXxXxXxXxXxXxXxXxXxXxXxXxXY q ",
"%.,.M.2.M.M.2.R Z u fXxXxXxXxXxXxXxXxXxXxXxXxXxXxXxXxXxXcX/._.T ",
",.D Z e Z r 8 a Z 3.Z P !.[.|.uXuXuXzXxXxXxXzXcXhXaX{.Y y U U Q.",
"P.-X>X>X>XF p.a.Q B O.O.6.@X8.8.8.O.fX[.:.;.^.Y 0 T Q._.U 9 5 t ",
"P.-X-X1X;Xx x.a.a.K 6.9.rX,X,X>X=X@.jX^.qX0XwX8XwX^.!.u !.4X3Xr ",
"P.9.-X1X#Xx Q < # * r.e.@X>XrX,X,X<.xX:.eX0X8X3X3XwXwX3XwX8X`.t.",
"V.H 2X;X7.3 o   * y.x.e.`.rXrXrX:X(.pXOXeX0X9XqXwXwX8XqXqX+X*.n.",
"&.$.$XZ y.x.i.y.i.x.p.V F +XtXtXrX'.(.eX:XeXqX0X{.0X0XeXeX,.g.n.",
"v.$.h.%.y.b x j x k b j.j.C OXtX6XP +X>X>X:XeX6X5.8.:X:X<.f.Y.W.",
"l._ $.d.V.G j.o.o.j.m.j.[ ].'.`.5XOX<X;X;X;X>X XB.=.;X<.c.v.t.B.",
"_  .~ _ V.f j._ F :.G k.N.hX5 6 `.<X1X;X1X;X>XB.U.=.*.b.U.t.g.f.",
"..D.l.q.& > o.oXcX).uX>.fXt % % r ;X<X<X@X`.5XW.G.j v.J.h.c.f.U.",
"A.l.l.& O = ! zX^.$ $ ^.gX, % % r #X`.w % $ ; h.d.v.K.q.G.v.F.H.",
"A.A.f + @ # #.xXw $ $ w }.P $ & 4 ! : . $ % $ ! g.J.q.G.H.J.J.I.",
"A. .O + @ o v jX^.+ $ = -.(.P G j.]   . % X + v.h.v.C.T.J.J.J.Y.",
"A.l + + @   ' F pXP , g j.j.' o.j.!     . . 1 R.T.t.U.U.U.Y.I.v.",
"F.1 + $ @ o { X.b j ! { } } } o.o.o.< # - b =.U.E.U.U.$XE.J.I.n.",
"A.4 + + X * o.} X.{ ^ B z } } } o.o.o.o.w.j G.Y.T.U.E.E.E.J.H.K.",
"F.1.O O X g [ [ { ` d N.q D h v v x g k C I.U.W.T.T.T.U.Y.J.J.K.",
"2 < h 1 < [ [ [ { { ^ s s , 5 2 .X5X&.b.Y.R.U.W.U.J.G.h.t.$.$.$.",
"r.p u.Q b [ [ { ` [ [ ^ i & - x V.7.C.d.T.J.U.I.I.U.G 8 Z A D 8 ",
"0.d i.p / c z ^ / ( ( ( [ b g =.#.%.H.v.U.U.I.v.I.U.1. X,.,.4.5.",
"0.j c.i [ z p n ^ / ( ( ` ( i.k c.#.k.H.J.U.n.v.H.U.%.7X7X7X7X4.",
"0.j b.i X.g g n n / ) ) ( ( | g d.J.k.K.K.K.F.b.I.L.%.&X&X&X%X,.",
"0.j k.i X.i v m ) n n n ^ ^ / p k.v.d.S.S.S.z.H.H.B.B *X%X%X*X+.",
"0.j x.i X.i ' g [ ` ` ) ) ) ^ i z.l.z.S.S.S.k.V H J N.H C K %.J ",
"w.x i.j { g ` g [ [ [ ` ` { [ a U.z.z.z.m.D.2 c u.s.s.a.a.a.p.p."
};
